<svg id="Layer_1" data-name="Layer 1" xmlns="http://www.w3.org/2000/svg" xmlns:xlink="http://www.w3.org/1999/xlink" viewBox="0 0 109.66 109.5"><defs><linearGradient id="linear-gradient" x1="503.09" y1="410.4" x2="612.75" y2="410.4" gradientUnits="userSpaceOnUse"><stop offset="0" stop-color="#3951a3"/><stop offset="0.07" stop-color="#3957a7"/><stop offset="0.16" stop-color="#3767b3"/><stop offset="0.26" stop-color="#3683c6"/><stop offset="0.37" stop-color="#33a8e0"/><stop offset="0.44" stop-color="#31c5f4"/><stop offset="0.56" stop-color="#32b1e6"/><stop offset="0.81" stop-color="#367dc1"/><stop offset="1" stop-color="#3951a3"/></linearGradient></defs><title>netdb</title><path d="M608.64,406.1a4.52,4.52,0,0,0-4.15,1.92,2.79,2.79,0,0,1-2.33,1.14l-40.86-.38,28.91-28.37a2.81,2.81,0,0,1,2.43-.82,4.54,4.54,0,1,0-3.67-5.37,4.48,4.48,0,0,0,0,1.71,2.77,2.77,0,0,1-.84,2.47l-26.84,26.35s7.06-16.43,9.3-21.51a2.93,2.93,0,0,1,1.92-1.61,4.55,4.55,0,0,0,3.15-5.33,4.54,4.54,0,1,0-8.26,3.41,2.79,2.79,0,0,1,.18,2.59l-9.4,22.35V366.23a2.81,2.81,0,0,1,1.15-2.33,4.54,4.54,0,1,0-5.23,0,2.86,2.86,0,0,1,1.18,2.33v41.42L527,379.37a2.81,2.81,0,0,1-.83-2.41,4.49,4.49,0,0,0,0-1.71,4.53,4.53,0,1,0-5.32,5.4,4.43,4.43,0,0,0,1.74,0,2.77,2.77,0,0,1,2.46.82l26.07,26.06s-17.42-7.31-22.66-9.55a2.92,2.92,0,0,1-1.61-1.9,4.53,4.53,0,1,0-1.91,5.1,2.79,2.79,0,0,1,2.56-.18l19.8,8.1-33.6.5a2.74,2.74,0,0,1-2.33-1.12,4.5,4.5,0,0,0-4.14-1.89,4.59,4.59,0,0,0-4.1,4.43,4.54,4.54,0,0,0,8.25,2.68,2.83,2.83,0,0,1,2.3-1.19l39.34-.23h0l-27.14,29a2.8,2.8,0,0,1-2.41.86,4.35,4.35,0,0,0-1.68.05,4.53,4.53,0,1,0,5.43,3.54,2.82,2.82,0,0,1,.8-2.48l25.35-26.12s-6.87,17-8.94,22.15a2.78,2.78,0,0,1-1.84,1.6,4.54,4.54,0,1,0,5.07,1.86,2.81,2.81,0,0,1-.21-2.57l8-20.29.16,34.68a2.76,2.76,0,0,1-1.13,2.32,4.54,4.54,0,1,0,5.23,0,2.84,2.84,0,0,1-1.19-2.32l-.19-40,29.25,29a2.78,2.78,0,0,1,.83,2.4,4.5,4.5,0,0,0,0,1.71,4.54,4.54,0,1,0,5.31-5.42,4.48,4.48,0,0,0-1.75,0,2.79,2.79,0,0,1-2.46-.81L563.4,415.61s16.28,6.85,21.28,9a2.89,2.89,0,0,1,1.6,1.89,4.53,4.53,0,1,0,2-5.14,2.8,2.8,0,0,1-2.52.17l-24.29-9.81,40.79.38a2.81,2.81,0,0,1,2.3,1.17,4.53,4.53,0,0,0,8.23-2.7A4.59,4.59,0,0,0,608.64,406.1Z" transform="translate(-503.09 -355.65)" style="fill:url(#linear-gradient)"/><path d="M543.11,370.7a2.67,2.67,0,1,1-2.66-2.66A2.67,2.67,0,0,1,543.11,370.7Z" transform="translate(-503.09 -355.65)" style="fill:#3951a3"/><path d="M573.88,449.79a2.66,2.66,0,1,1-2.66-2.66A2.66,2.66,0,0,1,573.88,449.79Z" transform="translate(-503.09 -355.65)" style="fill:#3951a3"/><path d="M519.22,426a2.66,2.66,0,1,1-2.66-2.66A2.66,2.66,0,0,1,519.22,426Z" transform="translate(-503.09 -355.65)" style="fill:#3951a3"/><path d="M598.25,394.59a2.66,2.66,0,1,1-2.66-2.66A2.66,2.66,0,0,1,598.25,394.59Z" transform="translate(-503.09 -355.65)" style="fill:#3951a3"/></svg>